# xmcd
#
# Track frame offsets:
#	150
#	13641
#	30076
#	42147
#	60136
#	73913
#	92810
#	110452
#	133549
#	157651
#	175356
#	193445
#	205697
#
# Disc length: 3080 seconds
#
# Revision: 0
# Processed by: cddbd v1.5.1PL0 Copyright (c) Steve Scherf et al.
# Submitted via: dBpowerAMP V4.0
#
DISCID=a20c060d
DTITLE=Janiva Magness - Use What You Got
DYEAR=2003
DGENRE=Blues
TTITLE0=I'm Lost Without You
TTITLE1=Use What You Got
TTITLE2=I'm Not Ashamed
TTITLE3=Find A Fool
TTITLE4=How Much Longer (Is That Train Gonna Blow)
TTITLE5=Stormy Blues
TTITLE6=You Better Love Me
TTITLE7=All Night Worker
TTITLE8=That's Why I'm Cryin'
TTITLE9=Who's Gonna Help A Brother Get Further
TTITLE10=Who Will The Next Fool Be
TTITLE11=Matchbox
TTITLE12=Don't Start Crying Now
EXTD=on Blues Leaf Records label
EXTT0=
EXTT1=
EXTT2=
EXTT3=
EXTT4=
EXTT5=
EXTT6=
EXTT7=
EXTT8=
EXTT9=
EXTT10=
EXTT11=
EXTT12=
PLAYORDER=
